# xmcd CD database file
#
# Track frame offsets:
#	150
#	56452
#	112988
#	149588
#	198074
#	236397
#	257697
#
# Disc length: 3477 seconds
#
# Revision: 0
# Processed by: cddbd v1.5.1PL2 Copyright (c) Steve Scherf et al.
# Submitted via: CDex 1.51
#
DISCID=580d9307
DTITLE=Dino Pacifici - The Float Zone
DYEAR=2004
DGENRE=New Age
TTITLE0=The Currents Of Space Pt. 1
TTITLE1=When It Came
TTITLE2=Spectre
TTITLE3=Undercurrents
TTITLE4=The Float Zone
TTITLE5=Epilogue
TTITLE6=Outro
EXTD=YEAR: 2004
EXTT0=
EXTT1=
EXTT2=
EXTT3=
EXTT4=
EXTT5=
EXTT6=
PLAYORDER=
